<svg width="100" height="100" viewBox="0 0 100 100" xmlns="http://www.w3.org/2000/svg">
  <!-- Background circle -->
  <circle cx="50" cy="50" r="50" fill="#FFE4B5"/>
  
  <!-- Face -->
  <ellipse cx="50" cy="45" rx="35" ry="40" fill="#FDBCB4"/>
  
  <!-- Hair -->
  <path d="M15 35 Q50 10 85 35 Q85 25 75 20 Q50 5 25 20 Q15 25 15 35" fill="#8B4513"/>
  
  <!-- Eyes -->
  <ellipse cx="38" cy="40" rx="6" ry="8" fill="white"/>
  <ellipse cx="62" cy="40" rx="6" ry="8" fill="white"/>
  <circle cx="38" cy="40" r="4" fill="#4A90E2"/>
  <circle cx="62" cy="40" r="4" fill="#4A90E2"/>
  <circle cx="39" cy="38" r="1.5" fill="white"/>
  <circle cx="63" cy="38" r="1.5" fill="white"/>
  
  <!-- Eyebrows -->
  <path d="M32 32 Q38 30 44 32" stroke="#654321" stroke-width="2" fill="none" stroke-linecap="round"/>
  <path d="M56 32 Q62 30 68 32" stroke="#654321" stroke-width="2" fill="none" stroke-linecap="round"/>
  
  <!-- Nose -->
  <ellipse cx="50" cy="48" rx="2" ry="3" fill="#F4A460"/>
  
  <!-- Mouth -->
  <path d="M42 58 Q50 65 58 58" stroke="#D2691E" stroke-width="2" fill="none" stroke-linecap="round"/>
  
  <!-- Cheeks -->
  <circle cx="30" cy="52" r="4" fill="#FFB6C1" opacity="0.6"/>
  <circle cx="70" cy="52" r="4" fill="#FFB6C1" opacity="0.6"/>
  
  <!-- Glasses (optional modern touch) -->
  <circle cx="38" cy="40" r="12" fill="none" stroke="#333" stroke-width="1.5" opacity="0.8"/>
  <circle cx="62" cy="40" r="12" fill="none" stroke="#333" stroke-width="1.5" opacity="0.8"/>
  <line x1="50" y1="40" x2="50" y2="40" stroke="#333" stroke-width="1.5" opacity="0.8"/>
</svg>